<svg xmlns="http://www.w3.org/2000/svg" viewBox="0 0 162 52" stroke-miterlimit="1.414" width="162" height="52" clip-rule="evenodd" fill-rule="evenodd" stroke-linejoin="round"><path d="M19.085.354c9.388 0 17.23 6.86 18.8 15.837l-13.254.003-2.378-5.272-3.082-7.186-3.084 7.187-3.084 7.195h25.12c.03.456.05.92.05 1.385 0 10.544-8.574 19.145-19.087 19.145-9.34 0-17.146-6.788-18.776-15.698l13.073.042 2.66 5.183 3.09 6.62 3.083-6.62 3.088-6.62H.11C.036 20.878 0 20.192 0 19.5 0 8.956 8.573.352 19.085.352m134.937 4.945c0-.404-.08-.758-.237-1.052-.153-.292-.413-.52-.774-.682-.254-.107-.537-.173-.85-.203-.31-.028-.695-.045-1.16-.045h-1.358v4.36h1.16c.568 0 1.046-.034 1.44-.105.397-.067.73-.216 1.007-.436.255-.205.455-.446.58-.73.127-.285.19-.652.19-1.11m6.547 11.23h-4.958l-4.507-5.937h-1.463v5.938h-4.046V.337h6.514c.9 0 1.683.056 2.346.167.67.116 1.287.348 1.848.702.585.372 1.045.84 1.382 1.41.34.567.51 1.29.51 2.167 0 1.24-.277 2.247-.835 3.017-.558.773-1.304 1.386-2.24 1.843l5.446 6.883zm-24.2-8.093c0-.964-.1-1.79-.3-2.464-.198-.68-.464-1.234-.798-1.672-.35-.44-.744-.76-1.18-.947-.438-.195-.895-.292-1.366-.292-.497 0-.95.09-1.36.27-.403.177-.796.49-1.172.947-.335.422-.605.982-.808 1.675-.21.697-.313 1.53-.313 2.49 0 .995.098 1.82.293 2.476.198.655.465 1.206.808 1.648.35.45.742.774 1.185.962.44.192.9.292 1.37.292.477 0 .94-.106 1.392-.314.453-.204.838-.53 1.166-.962.348-.47.613-1.02.805-1.643.188-.63.28-1.45.28-2.465m4.198.008c0 2.62-.697 4.677-2.097 6.18-1.4 1.498-3.318 2.248-5.753 2.248-2.446 0-4.362-.762-5.753-2.28-1.392-1.517-2.09-3.567-2.09-6.15 0-2.602.698-4.657 2.09-6.17C128.354.758 130.267 0 132.714 0c2.435 0 4.354.752 5.756 2.256 1.398 1.505 2.094 3.563 2.094 6.18m-26.146 8.41c-2.427 0-4.356-.738-5.788-2.203-1.427-1.47-2.14-3.532-2.14-6.195 0-2.563.718-4.61 2.15-6.134 1.43-1.526 3.362-2.29 5.79-2.29.644 0 1.225.037 1.74.107.515.076 1.01.175 1.48.305.368.114.772.264 1.207.445.434.195.787.355 1.054.493V5.23h-.41c-.196-.175-.447-.383-.744-.625-.296-.245-.632-.48-1.007-.71-.38-.237-.797-.432-1.25-.595-.453-.163-.925-.245-1.42-.245-.584 0-1.122.094-1.612.278-.49.185-.957.506-1.4.96-.404.413-.738.976-.996 1.677-.256.705-.384 1.532-.384 2.49 0 1.01.13 1.857.398 2.545.27.682.618 1.237 1.06 1.653.416.41.887.702 1.403.883.52.182 1.036.272 1.552.272.533 0 1.044-.09 1.532-.268.487-.178.894-.372 1.228-.59.362-.226.683-.454.957-.686.272-.234.514-.438.714-.62h.372v3.803c-.3.14-.644.3-1.034.475-.394.175-.794.33-1.21.45-.505.15-.98.265-1.424.35-.446.076-1.053.12-1.83.12m-13.115-.317h-3.917L91.15 5.238v11.288h-3.72V.336h4.993l5.16 9.275V.338h3.72v16.19zm-25.754-6.24l-1.653-5.335-1.653 5.335h3.306zm-9.29 6.242L71.73.337h4.435l5.47 16.19h-4.187l-1.017-3.306h-5.082l-1.014 3.308h-4.076zm-11.766.293c-1.24 0-2.326-.117-3.266-.36-.937-.236-1.81-.533-2.616-.888v-3.857h.368c.808.685 1.706 1.217 2.683 1.588.982.368 1.932.553 2.852.553.233 0 .538-.026.92-.074.378-.05.685-.132.916-.24.287-.123.525-.293.723-.516.195-.223.292-.512.292-.877 0-.404-.16-.734-.48-.986-.32-.257-.7-.438-1.14-.558-.55-.144-1.143-.282-1.77-.413-.624-.13-1.212-.288-1.755-.48-1.254-.44-2.155-1.034-2.697-1.78-.543-.744-.816-1.682-.816-2.806 0-1.513.64-2.74 1.926-3.68C51.906.51 53.513.04 55.436.04c.965 0 1.922.097 2.877.292.953.198 1.807.46 2.56.794v3.698h-.358c-.598-.515-1.337-.952-2.2-1.302-.87-.358-1.76-.536-2.675-.536-.352 0-.67.023-.956.072-.282.052-.577.15-.89.295-.253.116-.473.29-.66.516-.185.23-.275.484-.275.767 0 .412.145.744.44.983.292.247.86.464 1.698.655l1.574.362c.505.11 1.045.273 1.616.478 1.123.404 1.957.952 2.507 1.638.548.685.822 1.588.822 2.713 0 1.607-.63 2.903-1.897 3.883-1.268.974-2.977 1.465-5.13 1.465m98.89 22.132c-1.24 0-2.33-.116-3.27-.357-.938-.236-1.81-.533-2.613-.89v-3.845h.37c.808.686 1.705 1.214 2.68 1.588.982.367 1.932.553 2.853.553.234 0 .54-.028.922-.074.376-.053.685-.135.916-.243.288-.122.524-.293.722-.516.195-.223.292-.51.292-.877 0-.404-.16-.734-.478-.987-.32-.256-.702-.437-1.142-.557-.55-.143-1.142-.278-1.77-.41-.626-.132-1.21-.29-1.75-.48-1.26-.44-2.16-1.032-2.703-1.78-.547-.746-.82-1.682-.82-2.808 0-1.514.645-2.744 1.93-3.68 1.28-.94 2.882-1.408 4.804-1.408.967 0 1.923.098 2.88.293.952.197 1.807.462 2.558.793v3.7h-.356c-.6-.515-1.338-.95-2.2-1.302-.87-.356-1.76-.534-2.675-.534-.348 0-.668.025-.954.076-.285.052-.58.15-.89.296-.252.115-.475.288-.658.515-.186.228-.28.483-.28.766 0 .41.15.74.443.984.293.244.86.462 1.7.654l1.574.363c.504.112 1.044.274 1.615.48 1.124.404 1.958.95 2.507 1.634.546.686.82 1.59.82 2.716 0 1.606-.63 2.902-1.896 3.882-1.266.975-2.977 1.465-5.13 1.465m-12.385-8.39c0-.967-.103-1.79-.304-2.466-.194-.68-.464-1.24-.798-1.67-.35-.44-.743-.76-1.18-.95-.44-.193-.897-.29-1.37-.29-.495 0-.946.09-1.356.266-.404.18-.798.494-1.174.95-.334.422-.606.982-.81 1.675-.21.7-.313 1.53-.313 2.492 0 .997.097 1.82.294 2.475.195.657.463 1.208.808 1.65.35.45.74.774 1.184.96.44.195.9.29 1.368.29.478 0 .942-.103 1.393-.31.45-.204.836-.53 1.164-.96.35-.474.617-1.024.806-1.65.193-.628.283-1.45.283-2.462m4.197.007c0 2.618-.696 4.677-2.097 6.18-1.397 1.5-3.317 2.248-5.75 2.248-2.447 0-4.36-.76-5.754-2.28-1.393-1.517-2.09-3.564-2.09-6.15 0-2.6.697-4.657 2.09-6.167 1.393-1.514 3.307-2.268 5.755-2.268 2.433 0 4.353.752 5.754 2.257 1.397 1.504 2.093 3.563 2.093 6.178m-23.274-3.138c0-.404-.078-.757-.234-1.05-.16-.294-.42-.52-.78-.68-.252-.11-.535-.175-.848-.206-.31-.028-.697-.042-1.16-.042h-1.36v4.353h1.162c.568 0 1.044-.032 1.44-.104.398-.066.73-.213 1.007-.438.26-.203.458-.445.582-.73.125-.282.19-.65.19-1.107m6.547 11.23h-4.964l-4.504-5.936h-1.463v5.937h-4.05V22.47h6.512c.9 0 1.685.056 2.347.167.667.115 1.284.348 1.85.7.584.372 1.043.84 1.377 1.41.342.568.516 1.294.516 2.17 0 1.24-.28 2.246-.836 3.015-.563.773-1.31 1.386-2.242 1.842l5.446 6.886zM102.795 39c-2.173 0-3.845-.526-5.02-1.577-1.17-1.05-1.754-2.586-1.754-4.61v-10.34h4.067V32.58c0 1.12.212 1.957.637 2.51.42.55 1.112.824 2.07.824.933 0 1.62-.265 2.06-.794.436-.53.653-1.38.653-2.543V22.47h4.072v10.333c0 1.992-.574 3.524-1.714 4.594-1.142 1.067-2.83 1.602-5.072 1.602m-10.4-1.263c-.71.288-1.635.57-2.77.85-1.132.275-2.253.41-3.357.41-2.543 0-4.572-.738-6.082-2.2-1.51-1.47-2.267-3.552-2.267-6.25 0-2.537.757-4.57 2.268-6.1 1.51-1.528 3.577-2.292 6.2-2.292 1.36 0 2.46.128 3.31.384.846.255 1.724.608 2.63 1.05v3.792h-.374c-.193-.153-.474-.37-.842-.646-.362-.284-.72-.52-1.068-.715-.41-.233-.877-.43-1.412-.598-.53-.17-1.097-.25-1.69-.25-.696 0-1.333.107-1.904.327-.57.215-1.08.55-1.532.996-.426.44-.77.99-1.017 1.658-.25.664-.373 1.44-.373 2.326 0 1.894.47 3.29 1.42 4.188.95.897 2.25 1.348 3.894 1.348.146 0 .316-.004.51-.01.196-.008.37-.02.513-.033v-3.175h-3.147v-3.03h7.08v7.966zm-28.018.925v-16.19h10.95v3.087h-6.904v2.84h6.36v3.087h-6.36v4.085h6.904v3.09h-10.95zm-9.884.292c-1.24 0-2.326-.118-3.268-.362-.937-.237-1.81-.532-2.615-.89v-3.847h.374c.808.685 1.706 1.216 2.683 1.588.982.37 1.93.553 2.852.553.232 0 .535-.025.918-.074.377-.05.683-.134.916-.237.287-.125.522-.297.718-.518.195-.223.293-.513.293-.878 0-.405-.158-.733-.48-.985-.317-.257-.7-.44-1.14-.558-.55-.144-1.144-.28-1.768-.41-.624-.13-1.21-.29-1.755-.48-1.253-.44-2.154-1.034-2.698-1.782-.547-.744-.817-1.68-.817-2.804 0-1.513.64-2.743 1.928-3.68 1.278-.94 2.883-1.407 4.805-1.407.965 0 1.922.097 2.876.292.95.198 1.807.46 2.56.794v3.697h-.362c-.6-.518-1.334-.95-2.2-1.304-.87-.355-1.758-.533-2.672-.533-.354 0-.673.025-.958.074-.282.055-.577.153-.89.298-.25.115-.473.285-.657.515-.186.227-.278.483-.278.766 0 .41.147.74.44.984.29.245.86.462 1.697.654l1.574.363c.505.112 1.046.276 1.617.48 1.122.403 1.957.95 2.507 1.633.547.686.822 1.588.822 2.716 0 1.606-.63 2.903-1.9 3.88-1.266.98-2.974 1.466-5.127 1.466" fill="#a80456"/></svg>