<?xml version="1.0" encoding="UTF-8"?>
<svg id="Capa_1" data-name="Capa 1" xmlns="http://www.w3.org/2000/svg" version="1.1" viewBox="0 0 400 67.98">
  <defs>
    <style>
      .cls-1 {
        fill: #5f555d;
      }

      .cls-1, .cls-2 {
        stroke-width: 0px;
      }

      .cls-2 {
        fill: #c52539;
      }
    </style>
  </defs>
  <g>
    <path class="cls-1" d="M106.97,24.51c0-1.55-.3-2.92-.91-4.14-.6-1.21-1.65-2.26-3.13-3.15-1.48-.89-3.55-1.66-6.2-2.29-2.22-.54-3.95-1.05-5.19-1.54-1.24-.49-2.13-1.08-2.65-1.77-.52-.69-.78-1.59-.78-2.7,0-1.98.74-3.38,2.22-4.19,1.48-.81,3.6-1.21,6.35-1.21,1.51,0,2.97.12,4.39.35,1.41.24,2.72.57,3.93,1.01V1.26c-.87-.3-2.12-.59-3.73-.86-1.61-.27-3.36-.4-5.24-.4-4.07,0-7.09.8-9.08,2.4-1.98,1.6-2.97,3.77-2.97,6.53,0,2.35.72,4.23,2.17,5.62,1.44,1.4,3.95,2.53,7.51,3.4,2.25.54,4.05,1.07,5.4,1.59,1.34.52,2.31,1.16,2.9,1.92.59.76.88,1.77.88,3.05,0,2.05-.72,3.47-2.17,4.26-1.45.79-3.61,1.18-6.51,1.18-1.68,0-3.32-.14-4.92-.43-1.6-.29-3.1-.7-4.51-1.24v3.68c2.49,1.01,5.75,1.51,9.78,1.51s7.24-.78,9.33-2.34c2.08-1.56,3.13-3.77,3.13-6.63Z"/>
    <path class="cls-1" d="M120.49,32.98l7.41-24.71,7.06,24.71h4.39L146.86.5h-4.03l-6.2,26.73-7.05-24.9c-.31-1.08-1.29-1.82-2.41-1.82h-1.48v3.58l-7.01,23.15-5.66-24.78c-.26-1.14-1.27-1.95-2.44-1.95h-2.09l7.56,32.47h4.44Z"/>
    <path class="cls-1" d="M155.03,3.01c0-1.38-1.12-2.51-2.51-2.51h-1.63v32.47h4.14V3.01Z"/>
    <path class="cls-1" d="M168.74,17.95c2.25.54,4.05,1.07,5.4,1.59,1.34.52,2.31,1.16,2.9,1.92.59.76.88,1.77.88,3.05,0,2.05-.72,3.47-2.17,4.26-1.45.79-3.61,1.18-6.51,1.18-1.68,0-3.32-.14-4.92-.43-1.6-.29-3.1-.7-4.51-1.24v3.68c2.49,1.01,5.75,1.51,9.78,1.51s7.24-.78,9.33-2.34c2.08-1.56,3.13-3.77,3.13-6.63,0-1.55-.3-2.92-.91-4.14-.6-1.21-1.65-2.26-3.13-3.15-1.48-.89-3.55-1.66-6.2-2.29-2.22-.54-3.95-1.05-5.19-1.54-1.24-.49-2.13-1.08-2.65-1.77-.52-.69-.78-1.59-.78-2.7,0-1.98.74-3.38,2.22-4.19,1.48-.81,3.6-1.21,6.35-1.21,1.51,0,2.97.12,4.39.35,1.41.24,2.72.57,3.93,1.01V1.26c-.87-.3-2.12-.59-3.73-.86-1.61-.27-3.36-.4-5.24-.4-4.07,0-7.09.8-9.08,2.4-1.98,1.6-2.97,3.77-2.97,6.53,0,2.35.72,4.23,2.17,5.62,1.44,1.4,3.95,2.53,7.51,3.4Z"/>
    <path class="cls-1" d="M193.25,17.95c2.25.54,4.05,1.07,5.4,1.59,1.34.52,2.31,1.16,2.9,1.92.59.76.88,1.77.88,3.05,0,2.05-.72,3.47-2.17,4.26-1.45.79-3.61,1.18-6.51,1.18-1.68,0-3.32-.14-4.92-.43-1.6-.29-3.1-.7-4.51-1.24v3.68c2.49,1.01,5.75,1.51,9.78,1.51s7.24-.78,9.33-2.34c2.08-1.56,3.13-3.77,3.13-6.63,0-1.55-.3-2.92-.91-4.14s-1.65-2.26-3.13-3.15c-1.48-.89-3.55-1.66-6.2-2.29-2.22-.54-3.95-1.05-5.19-1.54-1.24-.49-2.13-1.08-2.65-1.77-.52-.69-.78-1.59-.78-2.7,0-1.98.74-3.38,2.22-4.19,1.48-.81,3.6-1.21,6.35-1.21,1.51,0,2.97.12,4.39.35,1.41.24,2.72.57,3.93,1.01V1.26c-.87-.3-2.12-.59-3.73-.86-1.61-.27-3.36-.4-5.24-.4-4.07,0-7.09.8-9.08,2.4-1.98,1.6-2.97,3.77-2.97,6.53,0,2.35.72,4.23,2.17,5.62,1.44,1.4,3.95,2.53,7.51,3.4Z"/>
    <path class="cls-1" d="M245.92,1.91l-10.31,21.13-10.31-21.13c-.42-.86-1.29-1.41-2.25-1.41h-2.87v29.97c0,1.38,1.12,2.51,2.51,2.51h1.58V6.96l9.98,20.37h2.77l9.93-20.37v23.51c0,1.38,1.12,2.51,2.51,2.51h1.58V.5h-2.87c-.96,0-1.83.55-2.25,1.41Z"/>
    <path class="cls-1" d="M275.51.5h-19.43v32.47h21.94v-.72c0-1.38-1.12-2.51-2.51-2.51h-15.29v-11.4h12.33v-3.23h-12.33V3.78h17.8v-.77c0-1.38-1.12-2.51-2.51-2.51Z"/>
    <path class="cls-1" d="M294.76.5h-12.71v32.47h12.71c4.81,0,8.28-1.29,10.41-3.86,2.13-2.57,3.2-6.63,3.2-12.18,0-5.85-1.09-10.05-3.28-12.61-2.19-2.55-5.63-3.83-10.34-3.83ZM303.11,24.91c-.76,1.85-1.89,3.12-3.4,3.81-1.51.69-3.41,1.03-5.7,1.03h-7.82V3.78h7.82c2.45,0,4.43.38,5.92,1.13,1.5.76,2.59,2.09,3.28,4.01.69,1.92,1.03,4.59,1.03,8.02s-.38,6.12-1.13,7.97Z"/>
    <path class="cls-1" d="M314.04.5h-1.63v32.47h4.14V3.01c0-1.38-1.12-2.51-2.51-2.51Z"/>
    <path class="cls-1" d="M336.11,0c-3.63,0-6.59.71-8.88,2.14-2.29,1.43-3.97,3.45-5.04,6.08-1.08,2.62-1.61,5.7-1.61,9.23,0,3.23.57,6.04,1.71,8.45,1.14,2.4,2.87,4.27,5.17,5.6,2.3,1.33,5.2,1.99,8.7,1.99,1.88,0,3.59-.12,5.12-.35,1.53-.23,2.95-.55,4.26-.96v-3.68c-1.34.5-2.8.87-4.36,1.11-1.56.24-3.1.35-4.61.35-4.1,0-7.1-1.08-9-3.25-1.9-2.17-2.85-5.25-2.85-9.25,0-2.89.37-5.38,1.11-7.46.74-2.08,1.97-3.68,3.68-4.79,1.71-1.11,4.03-1.66,6.96-1.66,1.68,0,3.28.14,4.79.43,1.51.29,2.94.68,4.29,1.19V1.51c-1.34-.47-2.78-.84-4.31-1.11-1.53-.27-3.24-.4-5.12-.4Z"/>
    <path class="cls-1" d="M362.52.5h-3.11l-12.35,32.47h4.29l3.43-8.93h14.12l3.43,8.93h4.24l-11.69-30.86c-.37-.97-1.3-1.62-2.34-1.62ZM355.47,20.78l6.3-16.69,6.35,16.69h-12.66Z"/>
    <path class="cls-1" d="M397.49,29.75h-14.79V3.01c0-1.38-1.12-2.51-2.51-2.51h-1.63v32.47h21.43v-.72c0-1.38-1.12-2.51-2.51-2.51Z"/>
    <path class="cls-1" d="M97.91,55.74c-1.13-.65-2.73-1.21-4.73-1.67-1.75-.43-3.15-.84-4.15-1.25-.98-.39-1.67-.87-2.07-1.44-.4-.56-.6-1.3-.6-2.2,0-1.62.58-2.76,1.76-3.48,1.19-.73,2.95-1.1,5.21-1.1s4.29.32,6.09.94l.22.08v-2.21l-.12-.04c-.64-.2-1.57-.41-2.75-.61-1.2-.2-2.49-.3-3.86-.3-3.01,0-5.28.62-6.73,1.84-1.46,1.23-2.2,2.88-2.2,4.89,0,1.16.24,2.19.72,3.04.48.86,1.3,1.59,2.42,2.17,1.11.57,2.62,1.08,4.5,1.51,1.76.38,3.17.79,4.2,1.22,1.02.43,1.77.97,2.22,1.6.46.63.69,1.46.69,2.48,0,1.67-.59,2.88-1.74,3.57-1.18.71-2.96,1.08-5.3,1.08-2.5,0-4.82-.38-6.89-1.13l-.22-.08v2.21l.11.04c1.81.71,4.22,1.07,7.16,1.07s5.33-.57,6.89-1.7c1.58-1.14,2.38-2.84,2.38-5.07,0-1.19-.25-2.24-.74-3.14-.49-.9-1.32-1.68-2.47-2.34Z"/>
    <path class="cls-1" d="M119.09,42.84h-14.89v24.76h16.31v-.58c0-.78-.64-1.42-1.42-1.42h-12.46v-9.38h12.56v-2h-12.56v-9.34h13.89v-.62c0-.78-.64-1.42-1.42-1.42Z"/>
    <path class="cls-1" d="M133.07,54.95c0,.78.64,1.42,1.42,1.42h5.52v8.41c-.8.31-1.75.56-2.84.77-1.13.21-2.3.32-3.48.32-3.25,0-5.62-.88-7.06-2.61-1.45-1.74-2.18-4.22-2.18-7.35,0-2.3.28-4.32.85-6,.55-1.67,1.51-2.98,2.84-3.9,1.33-.92,3.19-1.39,5.52-1.39,1.22,0,2.42.1,3.56.28,1.13.19,2.19.45,3.14.77l.22.08v-2.21l-.11-.04c-.97-.33-2.05-.59-3.2-.77-1.15-.18-2.44-.27-3.84-.27-2.73,0-4.95.57-6.62,1.7-1.67,1.13-2.89,2.72-3.63,4.73-.74,1.99-1.11,4.36-1.11,7.02,0,2.39.41,4.51,1.21,6.31.81,1.81,2.07,3.24,3.75,4.25,1.67,1.01,3.84,1.52,6.44,1.52,2.3,0,4.18-.2,5.57-.6,1.39-.39,2.44-.83,3.14-1.29l.07-.05v-11.68h-9.17v.58Z"/>
    <path class="cls-1" d="M162.89,44.26v14.57c0,2.37-.67,4.14-1.99,5.28-1.33,1.14-3.23,1.72-5.66,1.72s-4.34-.58-5.68-1.72c-1.33-1.14-2.01-2.91-2.01-5.28v-14.57c0-.78-.64-1.42-1.42-1.42h-1v15.76c0,3.02.85,5.37,2.54,6.97,1.68,1.6,4.23,2.42,7.57,2.42s5.88-.81,7.55-2.42c1.67-1.61,2.52-3.95,2.52-6.97v-15.76h-1c-.78,0-1.42.64-1.42,1.42Z"/>
    <path class="cls-1" d="M182.64,58.13c-.21-.33-.53-.62-.94-.87,1.61-.4,2.86-1.16,3.7-2.28.92-1.21,1.38-2.79,1.38-4.69,0-2.26-.59-4.08-1.77-5.42-1.18-1.35-3.09-2.03-5.68-2.03h-10.37v24.76h2.42v-9.79h5.56c.94,0,1.67.08,2.19.24.5.15.89.4,1.17.73.29.34.56.8.81,1.36l2.9,6.61c.23.52.74.85,1.3.85h1.56l-3.36-7.86c-.3-.66-.59-1.2-.87-1.62ZM178.73,55.81h-7.34v-10.93h7.8c3.49,0,5.18,1.77,5.18,5.41,0,1.94-.5,3.36-1.5,4.22-1,.87-2.4,1.31-4.14,1.31Z"/>
    <path class="cls-1" d="M199.71,42.46c-3.8,0-6.64,1.05-8.44,3.13-1.79,2.07-2.7,5.35-2.7,9.75,0,4.09.91,7.26,2.69,9.4,1.79,2.15,4.63,3.25,8.44,3.25s6.64-1.09,8.44-3.25c1.79-2.15,2.69-5.31,2.69-9.4,0-4.4-.91-7.67-2.7-9.75-1.8-2.08-4.63-3.13-8.44-3.13ZM206.28,63.35c-1.41,1.67-3.62,2.52-6.57,2.52s-5.16-.85-6.59-2.52c-1.43-1.68-2.16-4.37-2.16-8.01,0-2.65.32-4.78.96-6.35.63-1.55,1.6-2.67,2.88-3.35,1.3-.68,2.95-1.03,4.91-1.03s3.61.35,4.89,1.03c1.27.68,2.24,1.8,2.86,3.35.63,1.57.96,3.7.96,6.35,0,3.64-.72,6.33-2.14,8.01Z"/>
    <path class="cls-1" d="M226.33,55.74c-1.13-.65-2.73-1.21-4.73-1.67-1.75-.43-3.15-.84-4.15-1.25-.98-.39-1.67-.88-2.07-1.44-.4-.56-.6-1.3-.6-2.2,0-1.62.58-2.76,1.76-3.48,1.19-.73,2.95-1.1,5.21-1.1s4.29.32,6.09.94l.22.08v-2.21l-.12-.04c-.64-.2-1.57-.41-2.75-.61-1.2-.2-2.49-.3-3.86-.3-3.01,0-5.28.62-6.73,1.84-1.46,1.23-2.2,2.88-2.2,4.89,0,1.16.24,2.19.72,3.04.48.86,1.3,1.59,2.42,2.17,1.11.57,2.62,1.08,4.5,1.51,1.76.38,3.17.79,4.2,1.22,1.02.43,1.77.97,2.23,1.6.46.63.69,1.46.69,2.48,0,1.67-.59,2.88-1.74,3.57-1.18.71-2.96,1.08-5.3,1.08-2.5,0-4.82-.38-6.89-1.13l-.22-.08v2.21l.11.04c1.81.71,4.22,1.07,7.16,1.07s5.33-.57,6.89-1.7c1.58-1.14,2.38-2.84,2.38-5.07,0-1.19-.25-2.24-.74-3.14-.49-.9-1.32-1.68-2.47-2.34Z"/>
  </g>
  <path class="cls-2" d="M0,45.78v22.19h22.19c1.84,0,3.33-1.49,3.33-3.33v-22.19H3.33C1.49,42.44,0,43.94,0,45.78Z"/>
  <path class="cls-2" d="M67.49,22.66V.47h-22.19c-1.84,0-3.33,1.49-3.33,3.33v22.19h22.19c1.84,0,3.33-1.49,3.33-3.33Z"/>
  <path class="cls-2" d="M64.16,42.44h-22.19v22.19c0,1.84,1.49,3.34,3.34,3.34h22.19v-22.19c0-1.84-1.49-3.34-3.34-3.34Z"/>
  <path class="cls-2" d="M22.19.47H0v22.19C0,24.5,1.49,26,3.33,26h22.19V3.81c0-1.84-1.49-3.33-3.33-3.33Z"/>
</svg>